#usda 1.0

def "Root"
{
    def Scope "StaticMeshes"
    {
        def Xform "SM_bamboo_mat_0601"
        {
            custom string unrealAssetPath = "/Game/Tableware_V01/Meshes/set_06/SM_bamboo_mat_0601.SM_bamboo_mat_0601"
            custom string unrealSceneName = "SM_bamboo_mat_0601"
            custom matrix4d xformOp:transform = ( (-0.0000011984224905781105, 0.999999999999282, 0, 0), (-0.999999999999282, -0.0000011984224905781105, 0, 0), (0, -0, 1, 0), (-29.16345977783203, 159.31228637695312, 70.00745391845703, 1) )
            uniform token[] xformOpOrder = ["xformOp:transform"]
        }
    }

    def Scope "AnimatedStaticMeshes"
    {
        def Xform "jengapiece10"
        {
            custom string unrealAssetPath = "/Game/Assets/jengapiece.jengapiece"
            custom string unrealSceneName = "jengapiece10"
            custom matrix4d xformOp:transform
            matrix4d xformOp:transform.timeSamples = {
                0: ( (-0.054073303013636435, 0.3074280290479145, -0.0002665041801422048, 0), (-0.3074281440816552, -0.05407329773624511, 0.00002942795243481558, 0), (-0.000017183496807118845, 0.0002675728635536112, 0.31214732337139933, 0), (-9.946102142333984, 163.24374389648438, 79.60073852539062, 1) ),
                1: ( (-0.05506680994904333, 0.3071188901719547, -0.009034373755324381, 0), (-0.3072488640640406, -0.055082206048507276, 0.0002688415045979676, 0), (-0.001329714870190385, 0.008940026536190217, 0.312016555910636, 0), (-9.975635528564453, 163.1845703125, 78.87100982666016, 1) ),
                2: ( (-0.05773111271222894, 0.30638260691318125, -0.015257882345174714, 0), (-0.30674169502981, -0.05747586662534901, 0.0064840923398965635, 0), (0.003554901917258856, 0.01619287511389532, 0.3117068764822863, 0), (-9.985918998718262, 163.16751098632812, 78.76824951171875, 1) ),
                3: ( (-0.05891231407385198, 0.3055691913987392, -0.02434737534011657, 0), (-0.30638640413918744, -0.05791850612793547, 0.01445005792842518, 0), (0.009627918367504179, 0.02662522026438837, 0.3108607794692349, 0), (-9.78615665435791, 163.18710327148438, 78.7698974609375, 1) ),
                4: ( (-0.05668840963602877, 0.30563274841457205, -0.028478649495030588, 0), (-0.3066766952147643, -0.055155744539027586, 0.0185265923489506, 0), (0.013107824314993383, 0.031344114019510254, 0.31029301448227614, 0), (-9.559843063354492, 163.26841735839844, 78.78002166748047, 1) ),
                5: ( (-0.057393445844783154, 0.30492192704553045, -0.03412619153187661, 0), (-0.30640822316722616, -0.05514937986461438, 0.022550672797501455, 0), (0.015999356702447023, 0.0376450662925116, 0.3094558012824757, 0), (-9.39318561553955, 163.34027099609375, 78.75341033935547, 1) ),
                6: ( (-0.0528939373963834, 0.3056751472368177, -0.034654320308230506, 0), (-0.3073459044601204, -0.05098873032188806, 0.019355375463174514, 0), (0.013293330408622668, 0.03740107543504155, 0.3096134207384886, 0), (-9.319615364074707, 163.40736389160156, 78.7510986328125, 1) ),
                7: ( (-0.05331559978123149, 0.3045554464965689, -0.04288837834205504, 0), (-0.30725806288711666, -0.050813044792080785, 0.02113062794577609, 0), (0.013635096237054467, 0.045825772855385735, 0.3084641082383033, 0), (-9.314541816711426, 163.44525146484375, 78.73725128173828, 1) ),
                8: ( (-0.051727466883520576, 0.3036565075395778, -0.050527030055691376, 0), (-0.307746751285326, -0.049809415126978056, 0.01571449667040432, 0), (0.007224432894170813, 0.05241884022471559, 0.3076298037207907, 0), (-9.372260093688965, 163.47979736328125, 78.7151107788086, 1) ),
                9: ( (-0.0514783565757479, 0.30328450139689256, -0.05295730529649814, 0), (-0.30787288097577364, -0.05062309699816367, 0.009358278557497397, 0), (0.000504114671887025, 0.053775464058444716, 0.3074800297777651, 0), (-9.391281127929688, 163.5418243408203, 78.67411041259766, 1) ),
                10: ( (-0.050992329881782775, 0.30137083389108854, -0.06333552668593939, 0), (-0.3077894812097321, -0.051974786934921864, 0.0004928968263765537, 0), (-0.010069943205677412, 0.06253182920518341, 0.3056540363851376, 0), (-9.420511245727539, 163.70880126953125, 78.598876953125, 1) ),
                11: ( (-0.048062355986959175, 0.29895644893394824, -0.07583559682203608, 0), (-0.3078983575563978, -0.050990687560544236, -0.005876849814619487, 0), (-0.01801659353450223, 0.07389844163462236, 0.3027382467740501, 0), (-9.513388633728027, 163.9405517578125, 78.48497772216797, 1) ),
                12: ( (-0.047428252427761726, 0.29641007620109433, -0.08560148226332286, 0), (-0.3074055734896649, -0.052766097119960234, -0.01239106733841598, 0), (-0.026236628777189894, 0.08241841106772402, 0.2999247709108376, 0), (-9.593162536621094, 164.17469787597656, 78.47388458251953, 1) ),
                13: ( (-0.04511045549854596, 0.28906595079243547, -0.10882053604328107, 0), (-0.3054614206396613, -0.058046568739254976, -0.027566329570091648, 0), (-0.045764115559209784, 0.10250591266086966, 0.2912631232667196, 0), (-9.700818061828613, 164.53640747070312, 78.35414123535156, 1) ),
                14: ( (-0.04739172640601819, 0.27784429483451617, -0.1341363420693127, 0), (-0.30473671305040234, -0.06336565373494582, -0.023586348033297067, 0), (-0.048223926044958926, 0.12737085270155696, 0.2808685497120093, 0), (-9.743959426879883, 164.88311767578125, 78.182861328125, 1) ),
                15: ( (-0.04812844850681279, 0.2571677721419884, -0.17024798261189913, 0), (-0.3031518535681804, -0.07114249689267498, -0.02176430521795541, 0), (-0.05673264949968658, 0.1619860435217841, 0.26072581683320734, 0), (-9.821602821350098, 165.1309356689453, 78.02681732177734, 1) ),
                16: ( (-0.04933950904544602, 0.23766149665416997, -0.19626159079866437, 0), (-0.3022201582667636, -0.07634015817268089, -0.016466400789197568, 0), (-0.06053574441136812, 0.18741716260836022, 0.24216988703559286, 0), (-9.936708450317383, 165.45208740234375, 77.8797836303711, 1) ),
                17: ( (-0.04685354656498695, 0.20717142784238338, -0.22873725281990856, 0), (-0.3025680432551699, -0.07639683605531855, -0.007217257723155023, 0), (-0.06077262503023973, 0.2206343755736882, 0.21228090762143778, 0), (-10.029102325439453, 165.95388793945312, 77.75257873535156, 1) ),
                18: ( (-0.048630851665056415, 0.1655985932249431, -0.260092545752121, 0), (-0.30241228041203044, -0.07698111324200045, 0.007530406867216434, 0), (-0.060148486860020486, 0.2531541521847511, 0.17242725462788253, 0), (-10.071187973022461, 166.59295654296875, 77.69791412353516, 1) ),
                19: ( (-0.05084931591126949, 0.09577439433380681, -0.29270736005252124, 0), (-0.30057867433375424, -0.08007225358055374, 0.026016935058963686, 0), (-0.06710287247433469, 0.2860973908012926, 0.10526875538745763, 0), (-10.055266380310059, 167.38681030273438, 77.55057525634766, 1) ),
                20: ( (-0.0804646939711269, 0.07264459071892582, -0.2927186065677765, 0), (-0.29248850501525564, -0.09269287841069945, 0.05739765581840562, 0), (-0.07356558769185284, 0.2890792483264727, 0.09196366604802536, 0), (-10.027300834655762, 167.87123107910156, 77.50120544433594, 1) ),
                21: ( (-0.10087027369257826, 0.006592610028275183, -0.2953264491131255, 0), (-0.27570349110125847, -0.1141462852633422, 0.09161984895603174, 0), (-0.10606018736189189, 0.2904534066584659, 0.04270923314332715, 0), (-10.216153144836426, 168.50418090820312, 76.98761749267578, 1) ),
                22: ( (-0.0777387789255655, -0.09329905886346761, -0.28755513216411416, 0), (-0.27075473070820955, -0.11058860508657962, 0.10907805641694085, 0), (-0.13447881291993502, 0.27658897560046336, -0.05338549269576991, 0), (-10.29060173034668, 169.19398498535156, 76.58647918701172, 1) ),
                23: ( (-0.00970441792612128, -0.17514216143432149, -0.25819960055816743, 0), (-0.2765047168791011, -0.11483324922398856, 0.08828619701763925, 0), (-0.14452321599187018, 0.23146177824534062, -0.1515734430212324, 0), (-10.602532386779785, 169.64479064941406, 76.33032989501953, 1) ),
                24: ( (0.042243849934392584, -0.22045492141495251, -0.21691258823363752, 0), (-0.2793430578121464, -0.12115739001017663, 0.0687337549217975, 0), (-0.13273622750070238, 0.18481480915177853, -0.21368341911695493, 0), (-10.897571563720703, 169.86566162109375, 76.0127182006836, 1) ),
                25: ( (0.06178012821009557, -0.23195518158492176, -0.1995394589093047, 0), (-0.2840480639158606, -0.11914869733622499, 0.05055958342688102, 0), (-0.1137361167430654, 0.171570332716131, -0.23465664290260918, 0), (-11.065385818481445, 169.91986083984375, 75.8302001953125, 1) ),
                26: ( (0.07561894398024678, -0.2428297578014992, -0.18097367268458017, 0), (-0.28860807651670334, -0.11430868458481738, 0.032785499315787135, 0), (-0.09177768173696652, 0.15938390515867404, -0.25220953845919025, 0), (-11.149291038513184, 169.9702606201172, 75.65985870361328, 1) ),
                27: ( (0.07976304014096995, -0.2478364345222609, -0.17219449851354476, 0), (-0.29042983555854135, -0.11143586522195524, 0.02585623188403466, 0), (-0.08200217546207081, 0.15360711195805427, -0.2590685657385561, 0), (-11.116789817810059, 169.97250366210938, 75.50514221191406, 1) ),
                28: ( (0.08182028370587528, -0.2550953893716936, -0.16021164022368095, 0), (-0.29240556196954753, -0.10715409724932236, 0.02128316093826391, 0), (-0.07239072228158308, 0.14450029725148208, -0.26704919172359065, 0), (-11.072763442993164, 169.99807739257812, 75.37662506103516, 1) ),
                29: ( (0.08342594814017577, -0.2553400111141124, -0.15898923255593678, 0), (-0.2954413503700485, -0.10054264841546867, 0.0064475195768501905, 0), (-0.05648457359721712, 0.14875701392660398, -0.26854583804561144, 0), (-11.06035041809082, 170.04275512695312, 75.08878326416016, 1) ),
                30: ( (0.08593344455250507, -0.2568452696674277, -0.15518355816379498, 0), (-0.2971362535507204, -0.09540439473201397, -0.006635846534407023, 0), (-0.04196995083938691, 0.14954766338485112, -0.27075827407691483, 0), (-11.079244613647461, 170.060791015625, 74.8693618774414, 1) ),
                31: ( (0.08434518069910209, -0.2588224992233641, -0.15275074649956882, 0), (-0.2974387164633035, -0.09460828496499767, -0.003933005493568363, 0), (-0.04303588405481612, 0.1466157586643563, -0.2721906599671168, 0), (-11.079869270324707, 170.06324768066406, 74.87232971191406, 1) ),
                32: ( (0.08219628515940901, -0.2567787666738575, -0.15730359773067426, 0), (-0.2976242321983085, -0.09408536493274783, -0.00193563462644329, 0), (-0.045821109586706786, 0.15049453115647307, -0.2696068348293035, 0), (-11.080541610717773, 170.0548858642578, 74.88780975341797, 1) ),
                33: ( (0.08085783023502274, -0.2552299871023354, -0.16048567269695438, 0), (-0.29782570301193717, -0.09345479868131268, -0.0014273739694839456, 0), (-0.0468812214224137, 0.15349218042709697, -0.2677280803429424, 0), (-11.074783325195312, 170.0457763671875, 74.89213562011719, 1) ),
                34: ( (0.08001509013606165, -0.25491786947308775, -0.16140152211608094, 0), (-0.2980125962517382, -0.09286185980460704, -0.0010740747162283988, 0), (-0.04713878278012919, 0.15436822887180396, -0.26717860777283253, 0), (-11.06833553314209, 170.02955627441406, 74.88934326171875, 1) ),
                35: ( (0.07868323680715411, -0.2549151638293927, -0.16205922887312296, 0), (-0.29826257840734327, -0.09206204694079066, -0.000001563065295997984, 0), (-0.0477950793212312, 0.15485100609296523, -0.26678234514883603, 0), (-11.07633113861084, 170.02835083007812, 74.89054107666016, 1) ),
                36: ( (0.0785086039907508, -0.2543945898420789, -0.16295943644377237, 0), (-0.2981739048894522, -0.09234742153591557, 0.0005121974344197801, 0), (-0.04862826969007722, 0.15553566086593473, -0.26623292990234115, 0), (-11.076793670654297, 170.02017211914062, 74.89136505126953, 1) ),
                37: ( (0.07785438428058901, -0.2536376076000512, -0.16444648073698898, 0), (-0.29827737168453944, -0.09201143197180571, 0.0007014948531241804, 0), (-0.049043771015325296, 0.15696450545967083, -0.2653165579620621, 0), (-11.074701309204102, 170.0265655517578, 74.90593719482422, 1) ),
                38: ( (0.0783880453236993, -0.25331234028721966, -0.16469413704230482, 0), (-0.29805161447800804, -0.09273949372071594, 0.0007794735699038566, 0), (-0.04956345995895767, 0.1570612624138097, -0.2651626796219937, 0), (-11.069146156311035, 170.0382080078125, 74.91645812988281, 1) ),
                39: ( (0.07829594230986794, -0.2538124801936496, -0.16396632728498284, 0), (-0.2981588231230914, -0.09239524315272303, 0.0006491565068673516, 0), (-0.049061682589208254, 0.15645555105702322, -0.26561369547408126, 0), (-11.072139739990234, 170.02980041503906, 74.91496276855469, 1) ),
                40: ( (0.07785251300505977, -0.2531507686918748, -0.16519582530160357, 0), (-0.29821512576892134, -0.09221244629687372, 0.0007679050336150548, 0), (-0.04942380076303863, 0.1576310525103465, -0.264850453239285, 0), (-11.072589874267578, 170.0418701171875, 74.92227172851562, 1) ),
                41: ( (0.07905287906359151, -0.2534018321856197, -0.1642380586961995, 0), (-0.2979069273154735, -0.09320556366116062, 0.00041440032167620335, 0), (-0.049377039885832634, 0.15664044779540226, -0.26544623076059626, 0), (-11.070362091064453, 170.02354431152344, 74.91468811035156, 1) ),
                42: ( (0.07931821216600106, -0.25327878127643316, -0.16429992800205967, 0), (-0.2977505081681281, -0.09370231878532505, 0.00070463284260985, 0), (-0.049892316268360624, 0.15654306096310314, -0.26540732887416457, 0), (-11.066903114318848, 170.01397705078125, 74.9069595336914, 1) ),
                43: ( (0.07912761180108616, -0.2536718018847952, -0.16378468837698434, 0), (-0.2977625036507507, -0.09365908652871162, 0.00120544506804959, 0), (-0.05012284506400198, 0.15593135634775665, -0.26572379624090486, 0), (-11.063043594360352, 170.02896118164062, 74.90752410888672, 1) ),
                44: ( (0.07890201977211667, -0.2533662865136175, -0.1643653926523099, 0), (-0.2977320288760436, -0.09375017051713884, 0.0015908101490012042, 0), (-0.05065666199817424, 0.1563727146668171, -0.2653629591359198, 0), (-11.060730934143066, 170.03350830078125, 74.9222412109375, 1) ),
                45: ( (0.0793461633288, -0.25380785011580886, -0.16346787987907124, 0), (-0.2977490312711428, -0.09370469229609166, 0.0009649799784461337, 0), (-0.04985667316366957, 0.15568237307087132, -0.2659197890991039, 0), (-11.065454483032227, 170.03701782226562, 74.91019439697266, 1) ),
                46: ( (0.08014290715372722, -0.25390163991269926, -0.16293267888965396, 0), (-0.29753906033440036, -0.09437156178195219, 0.0007085687865681844, 0), (-0.04983582169816043, 0.1551256295203508, -0.2662488559975854, 0), (-11.064924240112305, 170.04388427734375, 74.91795349121094, 1) ),
                47: ( (0.07963484725126829, -0.2537954033926247, -0.1633467798507523, 0), (-0.29767067562611166, -0.09395434074953121, 0.0008584254092808126, 0), (-0.04986428674617687, 0.1555521471382165, -0.26599455973087993, 0), (-11.065110206604004, 170.06005859375, 74.9181137084961, 1) ),
                48: ( (0.07907531375910307, -0.253278705766515, -0.1644170858722005, 0), (-0.2977561603836361, -0.09368045904755455, 0.0011075711272324558, 0), (-0.0502429182981321, 0.15655626568674047, -0.26533339068716716, 0), (-11.06356143951416, 170.06861877441406, 74.92808532714844, 1) ),
                49: ( (0.07910111530989504, -0.253510381057596, -0.16404720790166236, 0), (-0.2977962691464916, -0.09355429145438296, 0.000981223963636487, 0), (-0.049963814507091364, 0.1562564454305232, -0.2655627305925248, 0), (-11.066337585449219, 170.0717010498047, 74.92613220214844, 1) ),
                50: ( (0.07995242786389847, -0.25417136841472887, -0.1626053840572946, 0), (-0.2976646891572557, -0.09397570570714596, 0.0005345402943068798, 0), (-0.049389565767797634, 0.15492410254306307, -0.2664492758911792, 0), (-11.065879821777344, 170.06134033203125, 74.9278335571289, 1) ),
                51: ( (0.07964669378767222, -0.25454444860224873, -0.16217124906110184, 0), (-0.2978389196972961, -0.09342287965673218, 0.0003600524397113599, 0), (-0.04883000266639629, 0.1546456741821419, -0.2667140222687765, 0), (-11.074496269226074, 170.05870056152344, 74.92276763916016, 1) ),
                52: ( (0.07984711851737114, -0.2546703887459793, -0.1618746951441537, 0), (-0.29787724184938796, -0.09330119894323785, -0.00014571041023063599, 0), (-0.04826565559388538, 0.15451172983544012, -0.2668943146861531, 0), (-11.081779479980469, 170.06338500976562, 74.92689514160156, 1) ),
                53: ( (0.07984711851737114, -0.2546703887459793, -0.1618746951441537, 0), (-0.29787724184938796, -0.09330119894323785, -0.00014571041023063599, 0), (-0.04826565559388538, 0.15451172983544012, -0.2668943146861531, 0), (-11.081779479980469, 170.06338500976562, 74.92689514160156, 1) ),
                54: ( (0.07984711851737114, -0.2546703887459793, -0.1618746951441537, 0), (-0.29787724184938796, -0.09330119894323785, -0.00014571041023063599, 0), (-0.04826565559388538, 0.15451172983544012, -0.2668943146861531, 0), (-11.081779479980469, 170.06338500976562, 74.92689514160156, 1) ),
            }
            uniform token[] xformOpOrder = ["xformOp:transform"]
        }
    }

    def Scope "SkeletalMeshes"
    {
    }

    def Scope "Camera"
    {
    }
}

